<?xml version="1.0" encoding="UTF-8"?>
<svg id="Layer_1" data-name="Layer 1" xmlns="http://www.w3.org/2000/svg" viewBox="0 0 40.95 40.95">
  <defs>
    <style>
      .cls-1 {
        stroke: #028bff;
        stroke-miterlimit: 10;
      }

      .cls-1, .cls-2 {
        fill: #ff92c2;
      }

      .cls-3 {
        fill: #028bff;
      }
    </style>
  </defs>
  <circle class="cls-1" cx="20.48" cy="20.48" r="19.98"/>
  <g>
    <path class="cls-2" d="M22.31,12.02c.94,3.07,1.88,6.15,2.81,9.22"/>
    <path class="cls-3" d="M21.1,12.36c.94,3.07,1.88,6.15,2.81,9.22.2.65.87,1.06,1.54.87s1.07-.89.87-1.54c-.94-3.07-1.88-6.15-2.81-9.22-.2-.65-.87-1.06-1.54-.87s-1.07.89-.87,1.54h0Z"/>
  </g>
  <g>
    <path class="cls-2" d="M30.34,8.81c1.08,2.65,2.16,5.3,3.24,7.95"/>
    <path class="cls-3" d="M29.14,9.14c1.08,2.65,2.16,5.3,3.24,7.95.25.6.84,1.1,1.54.87.58-.19,1.14-.89.87-1.54-1.08-2.65-2.16-5.3-3.24-7.95-.25-.6-.84-1.1-1.54-.87-.58.19-1.14.89-.87,1.54h0Z"/>
  </g>
  <g>
    <path class="cls-2" d="M35.58,22.88c-.59,1.95-1.67,3.78-3.22,5.1s-3.58,2.12-5.62,2.05"/>
    <path class="cls-3" d="M34.38,22.55c-.28.9-.57,1.59-1.09,2.43-.48.78-.99,1.39-1.71,2.03-1.33,1.17-3.08,1.82-4.84,1.78-.68-.02-1.25.59-1.25,1.25s.57,1.23,1.25,1.25c2.4.06,4.69-.87,6.5-2.42s2.89-3.51,3.55-5.65c.2-.65-.24-1.36-.87-1.54s-1.34.23-1.54.87h0Z"/>
  </g>
</svg>