<?xml version="1.0" encoding="UTF-8"?>
<svg id="Layer_1" data-name="Layer 1" xmlns="http://www.w3.org/2000/svg" xmlns:xlink="http://www.w3.org/1999/xlink" viewBox="0 0 273 1089.5">
  <defs>
    <style>
      .cls-1 {
        fill: none;
        stroke: #fff;
        stroke-miterlimit: 10;
      }

      .cls-2 {
        fill: url(#linear-gradient);
        opacity: .21;
      }
    </style>
    <linearGradient id="linear-gradient" x1="136.5" y1="1089" x2="136.5" y2=".5" gradientUnits="userSpaceOnUse">
      <stop offset="0" stop-color="#ff92c2"/>
      <stop offset=".49" stop-color="#3cc2ff"/>
      <stop offset=".99" stop-color="#ff92c2"/>
    </linearGradient>
  </defs>
  <rect class="cls-2" x=".5" y=".5" width="272" height="1088.5"/>
  <rect class="cls-1" x="181.83" y="545" width="45.33" height="45.33"/>
  <rect class="cls-1" x="227.17" y="545" width="45.33" height="45.33"/>
  <rect class="cls-1" x="136.5" y="545" width="45.33" height="45.33"/>
  <rect class="cls-1" x="136.5" y="590.33" width="45.33" height="45.33"/>
  <rect class="cls-1" x="181.83" y="590.33" width="45.33" height="45.33"/>
  <rect class="cls-1" x="227.17" y="590.33" width="45.33" height="45.33"/>
  <rect class="cls-1" x="136.5" y="635.67" width="45.33" height="45.33"/>
  <rect class="cls-1" x="181.83" y="635.67" width="45.33" height="45.33"/>
  <rect class="cls-1" x="227.17" y="635.67" width="45.33" height="45.33"/>
  <rect class="cls-1" x="45.83" y="545" width="45.33" height="45.33"/>
  <rect class="cls-1" x="91.17" y="545" width="45.33" height="45.33"/>
  <rect class="cls-1" x=".5" y="545" width="45.33" height="45.33"/>
  <rect class="cls-1" x=".5" y="590.33" width="45.33" height="45.33"/>
  <rect class="cls-1" x="45.83" y="590.33" width="45.33" height="45.33"/>
  <rect class="cls-1" x="91.17" y="590.33" width="45.33" height="45.33"/>
  <rect class="cls-1" x=".5" y="635.67" width="45.33" height="45.33"/>
  <rect class="cls-1" x="45.83" y="635.67" width="45.33" height="45.33"/>
  <rect class="cls-1" x="91.17" y="635.67" width="45.33" height="45.33"/>
  <rect class="cls-1" x="181.83" y="681" width="45.33" height="45.33"/>
  <rect class="cls-1" x="227.17" y="681" width="45.33" height="45.33"/>
  <rect class="cls-1" x="136.5" y="681" width="45.33" height="45.33"/>
  <rect class="cls-1" x="136.5" y="726.33" width="45.33" height="45.33"/>
  <rect class="cls-1" x="181.83" y="726.33" width="45.33" height="45.33"/>
  <rect class="cls-1" x="227.17" y="726.33" width="45.33" height="45.33"/>
  <rect class="cls-1" x="136.5" y="771.67" width="45.33" height="45.33"/>
  <rect class="cls-1" x="181.83" y="771.67" width="45.33" height="45.33"/>
  <rect class="cls-1" x="227.17" y="771.67" width="45.33" height="45.33"/>
  <rect class="cls-1" x="45.83" y="681" width="45.33" height="45.33"/>
  <rect class="cls-1" x="91.17" y="681" width="45.33" height="45.33"/>
  <rect class="cls-1" x=".5" y="681" width="45.33" height="45.33"/>
  <rect class="cls-1" x=".5" y="726.33" width="45.33" height="45.33"/>
  <rect class="cls-1" x="45.83" y="726.33" width="45.33" height="45.33"/>
  <rect class="cls-1" x="91.17" y="726.33" width="45.33" height="45.33"/>
  <rect class="cls-1" x=".5" y="771.67" width="45.33" height="45.33"/>
  <rect class="cls-1" x="45.83" y="771.67" width="45.33" height="45.33"/>
  <rect class="cls-1" x="91.17" y="771.67" width="45.33" height="45.33"/>
  <rect class="cls-1" x="181.83" y="817" width="45.33" height="45.33"/>
  <rect class="cls-1" x="227.17" y="817" width="45.33" height="45.33"/>
  <rect class="cls-1" x="136.5" y="817" width="45.33" height="45.33"/>
  <rect class="cls-1" x="136.5" y="862.33" width="45.33" height="45.33"/>
  <rect class="cls-1" x="181.83" y="862.33" width="45.33" height="45.33"/>
  <rect class="cls-1" x="227.17" y="862.33" width="45.33" height="45.33"/>
  <rect class="cls-1" x="136.5" y="907.67" width="45.33" height="45.33"/>
  <rect class="cls-1" x="181.83" y="907.67" width="45.33" height="45.33"/>
  <rect class="cls-1" x="227.17" y="907.67" width="45.33" height="45.33"/>
  <rect class="cls-1" x="45.83" y="817" width="45.33" height="45.33"/>
  <rect class="cls-1" x="91.17" y="817" width="45.33" height="45.33"/>
  <rect class="cls-1" x=".5" y="817" width="45.33" height="45.33"/>
  <rect class="cls-1" x=".5" y="862.33" width="45.33" height="45.33"/>
  <rect class="cls-1" x="45.83" y="862.33" width="45.33" height="45.33"/>
  <rect class="cls-1" x="91.17" y="862.33" width="45.33" height="45.33"/>
  <rect class="cls-1" x=".5" y="907.67" width="45.33" height="45.33"/>
  <rect class="cls-1" x="45.83" y="907.67" width="45.33" height="45.33"/>
  <rect class="cls-1" x="91.17" y="907.67" width="45.33" height="45.33"/>
  <rect class="cls-1" x="181.83" y="953" width="45.33" height="45.33"/>
  <rect class="cls-1" x="227.17" y="953" width="45.33" height="45.33"/>
  <rect class="cls-1" x="136.5" y="953" width="45.33" height="45.33"/>
  <rect class="cls-1" x="136.5" y="998.33" width="45.33" height="45.33"/>
  <rect class="cls-1" x="181.83" y="998.33" width="45.33" height="45.33"/>
  <rect class="cls-1" x="227.17" y="998.33" width="45.33" height="45.33"/>
  <rect class="cls-1" x="136.5" y="1043.67" width="45.33" height="45.33"/>
  <rect class="cls-1" x="181.83" y="1043.67" width="45.33" height="45.33"/>
  <rect class="cls-1" x="227.17" y="1043.67" width="45.33" height="45.33"/>
  <rect class="cls-1" x="45.83" y="953" width="45.33" height="45.33"/>
  <rect class="cls-1" x="91.17" y="953" width="45.33" height="45.33"/>
  <rect class="cls-1" x=".5" y="953" width="45.33" height="45.33"/>
  <rect class="cls-1" x=".5" y="998.33" width="45.33" height="45.33"/>
  <rect class="cls-1" x="45.83" y="998.33" width="45.33" height="45.33"/>
  <rect class="cls-1" x="91.17" y="998.33" width="45.33" height="45.33"/>
  <rect class="cls-1" x=".5" y="1043.67" width="45.33" height="45.33"/>
  <rect class="cls-1" x="45.83" y="1043.67" width="45.33" height="45.33"/>
  <rect class="cls-1" x="91.17" y="1043.67" width="45.33" height="45.33"/>
  <rect class="cls-1" x="181.83" y=".5" width="45.33" height="45.33"/>
  <rect class="cls-1" x="227.17" y=".5" width="45.33" height="45.33"/>
  <rect class="cls-1" x="136.5" y=".5" width="45.33" height="45.33"/>
  <rect class="cls-1" x="136.5" y="45.83" width="45.33" height="45.33"/>
  <rect class="cls-1" x="181.83" y="45.83" width="45.33" height="45.33"/>
  <rect class="cls-1" x="227.17" y="45.83" width="45.33" height="45.33"/>
  <rect class="cls-1" x="136.5" y="91.17" width="45.33" height="45.33"/>
  <rect class="cls-1" x="181.83" y="91.17" width="45.33" height="45.33"/>
  <rect class="cls-1" x="227.17" y="91.17" width="45.33" height="45.33"/>
  <rect class="cls-1" x="45.83" y=".5" width="45.33" height="45.33"/>
  <rect class="cls-1" x="91.17" y=".5" width="45.33" height="45.33"/>
  <rect class="cls-1" x=".5" y=".5" width="45.33" height="45.33"/>
  <rect class="cls-1" x=".5" y="45.83" width="45.33" height="45.33"/>
  <rect class="cls-1" x="45.83" y="45.83" width="45.33" height="45.33"/>
  <rect class="cls-1" x="91.17" y="45.83" width="45.33" height="45.33"/>
  <rect class="cls-1" x=".5" y="91.17" width="45.33" height="45.33"/>
  <rect class="cls-1" x="45.83" y="91.17" width="45.33" height="45.33"/>
  <rect class="cls-1" x="91.17" y="91.17" width="45.33" height="45.33"/>
  <rect class="cls-1" x="181.83" y="136.5" width="45.33" height="45.33"/>
  <rect class="cls-1" x="227.17" y="136.5" width="45.33" height="45.33"/>
  <rect class="cls-1" x="136.5" y="136.5" width="45.33" height="45.33"/>
  <rect class="cls-1" x="136.5" y="181.83" width="45.33" height="45.33"/>
  <rect class="cls-1" x="181.83" y="181.83" width="45.33" height="45.33"/>
  <rect class="cls-1" x="227.17" y="181.83" width="45.33" height="45.33"/>
  <rect class="cls-1" x="136.5" y="227.17" width="45.33" height="45.33"/>
  <rect class="cls-1" x="181.83" y="227.17" width="45.33" height="45.33"/>
  <rect class="cls-1" x="227.17" y="227.17" width="45.33" height="45.33"/>
  <rect class="cls-1" x="45.83" y="136.5" width="45.33" height="45.33"/>
  <rect class="cls-1" x="91.17" y="136.5" width="45.33" height="45.33"/>
  <rect class="cls-1" x=".5" y="136.5" width="45.33" height="45.33"/>
  <rect class="cls-1" x=".5" y="181.83" width="45.33" height="45.33"/>
  <rect class="cls-1" x="45.83" y="181.83" width="45.33" height="45.33"/>
  <rect class="cls-1" x="91.17" y="181.83" width="45.33" height="45.33"/>
  <rect class="cls-1" x=".5" y="227.17" width="45.33" height="45.33"/>
  <rect class="cls-1" x="45.83" y="227.17" width="45.33" height="45.33"/>
  <rect class="cls-1" x="91.17" y="227.17" width="45.33" height="45.33"/>
  <rect class="cls-1" x="181.83" y="272.5" width="45.33" height="45.33"/>
  <rect class="cls-1" x="227.17" y="272.5" width="45.33" height="45.33"/>
  <rect class="cls-1" x="136.5" y="272.5" width="45.33" height="45.33"/>
  <rect class="cls-1" x="136.5" y="317.83" width="45.33" height="45.33"/>
  <rect class="cls-1" x="181.83" y="317.83" width="45.33" height="45.33"/>
  <rect class="cls-1" x="227.17" y="317.83" width="45.33" height="45.33"/>
  <rect class="cls-1" x="136.5" y="363.17" width="45.33" height="45.33"/>
  <rect class="cls-1" x="181.83" y="363.17" width="45.33" height="45.33"/>
  <rect class="cls-1" x="227.17" y="363.17" width="45.33" height="45.33"/>
  <rect class="cls-1" x="45.83" y="272.5" width="45.33" height="45.33"/>
  <rect class="cls-1" x="91.17" y="272.5" width="45.33" height="45.33"/>
  <rect class="cls-1" x=".5" y="272.5" width="45.33" height="45.33"/>
  <rect class="cls-1" x=".5" y="317.83" width="45.33" height="45.33"/>
  <rect class="cls-1" x="45.83" y="317.83" width="45.33" height="45.33"/>
  <rect class="cls-1" x="91.17" y="317.83" width="45.33" height="45.33"/>
  <rect class="cls-1" x=".5" y="363.17" width="45.33" height="45.33"/>
  <rect class="cls-1" x="45.83" y="363.17" width="45.33" height="45.33"/>
  <rect class="cls-1" x="91.17" y="363.17" width="45.33" height="45.33"/>
  <rect class="cls-1" x="181.83" y="408.5" width="45.33" height="45.33"/>
  <rect class="cls-1" x="227.17" y="408.5" width="45.33" height="45.33"/>
  <rect class="cls-1" x="136.5" y="408.5" width="45.33" height="45.33"/>
  <rect class="cls-1" x="136.5" y="453.83" width="45.33" height="45.33"/>
  <rect class="cls-1" x="181.83" y="453.83" width="45.33" height="45.33"/>
  <rect class="cls-1" x="227.17" y="453.83" width="45.33" height="45.33"/>
  <rect class="cls-1" x="136.5" y="499.17" width="45.33" height="45.33"/>
  <rect class="cls-1" x="181.83" y="499.17" width="45.33" height="45.33"/>
  <rect class="cls-1" x="227.17" y="499.17" width="45.33" height="45.33"/>
  <rect class="cls-1" x="45.83" y="408.5" width="45.33" height="45.33"/>
  <rect class="cls-1" x="91.17" y="408.5" width="45.33" height="45.33"/>
  <rect class="cls-1" x=".5" y="408.5" width="45.33" height="45.33"/>
  <rect class="cls-1" x=".5" y="453.83" width="45.33" height="45.33"/>
  <rect class="cls-1" x="45.83" y="453.83" width="45.33" height="45.33"/>
  <rect class="cls-1" x="91.17" y="453.83" width="45.33" height="45.33"/>
  <rect class="cls-1" x=".5" y="499.17" width="45.33" height="45.33"/>
  <rect class="cls-1" x="45.83" y="499.17" width="45.33" height="45.33"/>
  <rect class="cls-1" x="91.17" y="499.17" width="45.33" height="45.33"/>
</svg>