<?xml version="1.0" encoding="UTF-8"?>
<svg xmlns="http://www.w3.org/2000/svg" viewBox="0 0 67.69 64.4">
  <defs>
    <style>
      .cls-1 {
        fill: #ff92c2;
        mix-blend-mode: multiply;
        opacity: .7;
      }

      .cls-2 {
        isolation: isolate;
      }

      .cls-3 {
        fill: #3cc2ff;
        stroke: #028bff;
        stroke-miterlimit: 10;
      }
    </style>
  </defs>
  <g class="cls-2">
    <g id="Layer_1" data-name="Layer 1">
      <path class="cls-1" d="M35.49,3.37l11.62,12.46,17.04.27c2.71.04,4.4,2.96,3.08,5.33l-8.26,14.9,5,16.29c.8,2.59-1.46,5.1-4.12,4.58l-16.72-3.25-13.94,9.79c-2.22,1.56-5.3.19-5.63-2.5l-2.08-16.91-13.62-10.23c-2.17-1.63-1.82-4.98.64-6.13l15.44-7.2,5.52-16.12c.88-2.57,4.17-3.27,6.02-1.28Z"/>
      <path class="cls-3" d="M29.56,1.64l11.62,12.46,17.04.27c2.71.04,4.4,2.96,3.08,5.33l-8.26,14.9,5,16.29c.8,2.59-1.46,5.1-4.12,4.58l-16.72-3.25-13.94,9.79c-2.22,1.56-5.3.19-5.63-2.5l-2.08-16.91L1.93,32.37c-2.17-1.63-1.82-4.98.64-6.13l15.44-7.2L23.54,2.93c.88-2.57,4.17-3.27,6.02-1.28Z"/>
    </g>
  </g>
</svg>