<?xml version="1.0" encoding="UTF-8"?>
<svg id="Layer_1" data-name="Layer 1" xmlns="http://www.w3.org/2000/svg" viewBox="0 0 68.5 74.6">
  <defs>
    <style>
      .cls-1 {
        stroke: #028bff;
        stroke-miterlimit: 10;
      }

      .cls-1, .cls-2 {
        fill: #ff92c2;
      }

      .cls-3 {
        fill: #028bff;
      }
    </style>
  </defs>
  <path class="cls-2" d="M13.15,74.25C5.34,66.43.5,55.63.5,43.7.5,19.84,19.84.5,43.7.5c9.1,0,17.55,2.82,24.52,7.63v66.12H13.15Z"/>
  <path class="cls-1" d="M13.15,74.25C5.34,66.43.5,55.63.5,43.7.5,19.84,19.84.5,43.7.5c9.1,0,17.55,2.82,24.52,7.63"/>
  <ellipse class="cls-3" cx="46.65" cy="29.87" rx="8.35" ry="2.88" transform="translate(3.23 64.28) rotate(-71.02)"/>
  <ellipse class="cls-3" cx="26.87" cy="24.53" rx="7.95" ry="2.74" transform="translate(-5.07 41.96) rotate(-71.02)"/>
  <path class="cls-3" d="M38.42,45.97c-.55.69-1.2,1.31-1.87,1.88-.13.11-.27.23-.4.34-.43.36.2-.13-.17.13-.39.27-.78.54-1.19.79s-.82.45-1.24.66c-.25.13.05-.01.09-.03-.1.04-.21.08-.32.12-.29.11-.58.2-.87.29-.26.07-.53.14-.79.19-.14.03-.69.09-.28.05-.58.05-1.15.05-1.73,0,.41.04-.38-.07-.49-.1-.26-.06-.53-.13-.79-.21-.28-.09-.57-.18-.85-.3.37.16-.38-.21-.47-.26-.19-.11-.38-.22-.57-.35-.09-.06-.17-.12-.26-.18-.31-.21.29.25.02,0-.33-.31-.64-.62-.95-.95-.19-.2.1.14.11.15-.05-.07-.11-.14-.15-.21-.11-.17-.22-.33-.32-.5-.19-.32-.33-.65-.5-.98.23.44.11.26,0-.06-.05-.14-.09-.28-.13-.43-.07-.26-.13-.53-.19-.79-.16-.75.03.48,0,.02,0-.07-.01-.14-.01-.2-.04-1.35-1.12-2.5-2.5-2.5s-2.54,1.14-2.5,2.5c.1,3.29,1.98,6.38,4.61,8.26,4.58,3.27,10.62,2.43,14.96-.79,1.18-.88,2.37-1.85,3.29-3.01.84-1.05,1.03-2.51,0-3.54-.87-.87-2.69-1.06-3.54,0h0Z"/>
</svg>