<?xml version="1.0" encoding="UTF-8"?>
<svg id="Layer_1" data-name="Layer 1" xmlns="http://www.w3.org/2000/svg" viewBox="0 0 32.06 25.82">
  <defs>
    <style>
      .cls-1 {
        fill: #ff92c2;
      }

      .cls-1, .cls-2 {
        stroke: #028bff;
        stroke-miterlimit: 10;
      }

      .cls-3 {
        fill: none;
      }

      .cls-2 {
        fill: #3cc2ff;
      }
    </style>
  </defs>
  <rect class="cls-1" x="8.36" y="2.12" width="23.2" height="23.2" rx="7.63" ry="7.63"/>
  <path class="cls-2" d="M16.24,9.98l3.52-1.79c.37-.19.66-.49.84-.86l1.73-3.55c.12-.26.46-.31.67-.11l2.79,2.8c.29.29.67.48,1.08.54l3.91.55c.28.04.44.35.31.6l-1.8,3.52c-.19.37-.25.78-.18,1.19l.68,3.89c.05.28-.19.53-.47.48l-3.9-.62c-.41-.06-.82,0-1.19.2l-3.49,1.85c-.25.13-.56-.02-.6-.3l-.61-3.9c-.06-.41-.26-.78-.55-1.07l-2.84-2.74c-.2-.2-.15-.54.1-.67Z"/>
  <circle class="cls-3" cx="11.38" cy="11.38" r="11.38"/>
</svg>