<?xml version="1.0" encoding="UTF-8"?>
<svg id="Layer_1" data-name="Layer 1" xmlns="http://www.w3.org/2000/svg" viewBox="0 0 68.07 67.29">
  <defs>
    <style>
      .cls-1 {
        fill: #3cc2ff;
        opacity: .7;
      }

      .cls-2 {
        fill: #ff92c2;
        stroke: #028bff;
        stroke-miterlimit: 10;
      }
    </style>
  </defs>
  <path class="cls-1" d="M32.19,6.25l-11.62,12.46-17.04.27c-2.71.04-4.4,2.96-3.08,5.33l8.26,14.9-5,16.29c-.8,2.59,1.46,5.1,4.12,4.58l16.72-3.25,13.94,9.79c2.22,1.56,5.3.19,5.63-2.5l2.08-16.91,13.62-10.23c2.17-1.63,1.82-4.98-.64-6.13l-15.44-7.2-5.52-16.12c-.88-2.57-4.17-3.27-6.02-1.28Z"/>
  <path class="cls-2" d="M38.5,1.64l-11.62,12.46-17.04.27c-2.71.04-4.4,2.96-3.08,5.33l8.26,14.9-5,16.29c-.8,2.59,1.46,5.1,4.12,4.58l16.72-3.25,13.94,9.79c2.22,1.56,5.3.19,5.63-2.5l2.08-16.91,13.62-10.23c2.17-1.63,1.82-4.98-.64-6.13l-15.44-7.2-5.52-16.12c-.88-2.57-4.17-3.27-6.02-1.28Z"/>
</svg>